# xmcd
#
# Track frame offsets:
#	150
#	18212
#	35796
#	54481
#	73695
#	90854
#	106401
#	125763
#	140939
#	158584
#	177214
#	194359
#	208234
#	224038
#
# Disc length: 3233 seconds
#
# Revision: 1
# Processed by: cddbd v1.5.2PL0 Copyright (c) Steve Scherf et al.
# Submitted via: audiograbber 1.83.01
#
DISCID=d40c9f0e
DTITLE=Ben Reel - 7th
DYEAR=1900
DGENRE=
TTITLE0=Lucky Streak
TTITLE1=One Of These Days 
TTITLE2=Crushed It
TTITLE3=Say
TTITLE4=God's World
TTITLE5=Reflection Of The Blues
TTITLE6=Back On The Road
TTITLE7=Meant To Be 
TTITLE8=Many A Time 
TTITLE9=Gimme Some Room
TTITLE10=Given It All
TTITLE11=Coming Round Again 
TTITLE12=All Souls Alive
TTITLE13=Resurrection Man
EXTD=
EXTT0=
EXTT1=
EXTT2=
EXTT3=
EXTT4=
EXTT5=
EXTT6=
EXTT7=
EXTT8=
EXTT9=
EXTT10=
EXTT11=
EXTT12=
EXTT13=
PLAYORDER=
